<?xml version="1.0" encoding="UTF-8"?>
<svg id="Calque_2" data-name="Calque 2" xmlns="http://www.w3.org/2000/svg" viewBox="0 0 164.91 112.27">
  <defs>
    <style>
      .cls-1 {
        fill: #002f87;
      }
    </style>
  </defs>
  <g id="Calque_1-2" data-name="Calque 1">
    <path class="cls-1" d="m33.93,78.02c-6.06,11.37-11.44,23.1-17.41,34.25-1.78-5.17-2.95-10.61-4.43-16.02-.98.95-1.78,2.63-2.42,3.65-1.69-5.28-1.77-9.44-2.75-15.11-.81.5-1.6,1.12-2.4,1.72-.88-4.61,1.08-8.75,1.33-12.73-5.3,1.58-.13-4.69,1.16-6.73.66-.92.55-2.08-.99-1.4.35-3.02,3.65-5.37,5.24-7.76-.72-.78-1.21.75-1.82-.03,1.03-2.67,3.35-5.13,4.94-7.42-.36-.39-.97-.12-1.32-.41,1.38-2.28,3.73-4.52,5.79-6.43-.37-.5-1.17.12-1.13-.63,2.03-2.12,4.16-4.47,6-6.46-.44-.17-.92-.65-1.53-.38.99-1.92,2.93-3.91,4.59-5.57-3.15-1.62,4.55-3.75.23-5.36-8.22,5.59-15.62,13.04-23.44,19.35-.35-1.46-.45-3.59-.3-5.31-.65-1.11-1.23.55-1.99.41-.33-1.25.1-2.36.19-3.54.34-.89.09-3.43-1.47-1.89.35-1.96,1.76-3.91,2.02-5.64-.42.03-.84.07-1.27.12.44-2.07,2.54-3.56,2.98-5.63-.27-.51-1.17.11-1.33-.41,1.02-2.76,9.25-7.08,1.17-6.73,6.68-1.6,13.15-3.19,20.28-4.52,11.76-3.17,23.53-6.22,34.94-9.79C70.2-.89,81.65.57,93.03,0c.72-.04,2.85.28,3.37,1.56,1.73,4.6,7.97.98,11.1,4.52,1.75,1.54,2.4,3.94,2.3,6.18-5.02-2.18-10.93-.44-16.28.51,23.38,10.02,47.98,18.01,71.39,28.03-4.51,1.93-9.42,3.15-14.82,3.68,1.39,1.04,3.52,2.11,3.93,3.03-4.93,2.08-11.22,1.2-16.29,1.79,1.16,2.02,3.56,2.54,4.3,4.71-4.56.33-9.35-1.66-13.49-2.54.07.74.65,1.22.93,1.94-2.97.18-5.45-1.19-8.18-1.77l-2.1-.74c-3.3-2.05-2.38-1.5-3.3-2.05.98,2.36-1.76,1.66-2.88,1.03-2.3-1.6-4.67-2.97-6.86-4.68.38,1.78-1.78,1.56-2.8.8-2.04-1.19-3.98-3.57-6.08-4.32.08,4.16-3.65-.19-5.41-.76-.89-.35-3.12-3.54-2.82-.48-2.19-1.6-3.75-3.38-5.62-5.12-.87,3.18-4.65-1.69-6.39-1.95.52,3.16-1.89.29-2.77.06-1.38-1.04-2.58-2.32-3.92-3.04.04.42-.36.67-.11,1.08-2.33.22-4.48-2.14-6.96-2.43-1.19,8.77,8.18,7.33,12.85,10.3,1.49,1.03,3.87,2.4,3.41,4.26-1.52-.17-2.7-1.45-4.24-1.83-3.46-.52-7.89-.95-11.25.76-.72-.89.02-2.03.8-2.85.42-.04-.84-.99-1.37-.93-1.19-.21-2.56.02-3.82.15-.96-2.15-1.92-4.3-2.97-6.33-.09.22-.5.36-.35.78,1.64,4.86.62,12.01,5.97,14.27,3.92.8,8.45,2.38,10.55,6.45l-.38.47c-4.69-3.18-11.36-2.65-16.3-.67.36-1.75,1.78-2.52,3.09-3.4.43.06.84-.19,1.25-.33-2.44-.94-4.64-2.65-7.63-1.61-1.22-1.49-.28-4.03-1.6-5.51-5.36,10.77-10.73,21.54-16.1,32.32l-1.24,2.68ZM66.94,6.37c.72,1.96,3.2,2.14,4.59,2.12,7.21-.48,13.51-2.8,19.82-4.9,1.28-.02,2.25,1.17,3.61.93-.37-1.57-2.05-2.02-3.19-2.04-8.99-.2-17.64.85-26.46.2.25,1.47,1.09,2.46,1.63,3.69m-16.84.35c2.51-.56,6.74-.87,9.85-1.92.39-.35.35-.78.64-1.13-3.29,1.39-7.74.65-10.49,3.05m-10.85,44.62c-.5,2.61-1.31,6.32.81,8.47,8.93-16.99,16.66-34.29,25.6-51.18-.8-1.63-1.02-3.96-2.48-4.67-7.87,15.81-16.07,31.56-23.94,47.38m6.4-39.81l.05.52c3.65-.89,8.47-.81,11.38-1.64.55-.9,1.69-2.4.79-2.85-4.29.95-9.78.52-12.22,3.96m-18.61.83c-.67,3.06-.83,6.81.42,9.9,2.57,2.21,4.27-2.23,6.42-3.19-1.9.3-.81-1.73.02-2.02.42-1.22,5.54-3.42.97-3.2.95-1.26,2.73-2.82,2.73-3.79-3.31,1.07-7.15,1.23-10.56,2.3m61.71-5.74c1.09.22,3.56.29,3.57-.56-1.32,1.73-2.32-1.92-3.57.56M11.76,15.54c-.23.98-1.55,1.65-1.34,2.7,4.81-1.11,9.37-2.51,13.69-4.32-.04-.32.04-.64-.29-.83-3.85,1.12-8.21,1.32-12.05,2.45m55.63-4.52c-1.23,1.61-2.02,3.4-2.47,5.37,13.62-2.7,28.09-7.73,42.57-6.99-3.88-4.86-11.69-2.83-17-1.45-1.15.32-2.05-.13-2.95-.68-6.6,1.38-12.73,4.22-20.14,3.76m-24.5,6.22l.04.42c4.18-.94,11.69,1.65,12.75-4.01-3.75-.06-10.98-.86-12.79,3.59m-33.75,3.26c-.16.55-.64,1.13-.58,1.76,5.08-1.55,10.41-2.82,15.45-4.8.41-.25.02-.85.09-1.29-5.11,1.25-9.98,2.78-14.96,4.33m-1.83,5.3c.04.42.32,1.14-.07,1.5,5.67-2.04,11.88-4.13,17.23-7.32l-.26-.51c-5.68,2.05-11.77,3.17-16.9,6.33m74.35-10.82c8.22,3.37,16.46,7.91,25.7,8.52,1.17,0,2.1-.31,2.99-1.04l-.05-.52c-7.23-3.04-14.62-5.42-21.81-8.15-2.3.54-4.39,1.07-6.83,1.2m-5.15,1.99c.87,4.51-1.44,11.68,3.82,12.98.43-.04.85-.08,1.27-.12.5-3.68-.45-7.97-.73-12-1.41-.29-3.74-2.31-4.35-.86m-6.87.67c-.17,2.69.15,5.96.78,8.14,1.46.71,2.84,1.76,4.7,1.14.1-3.32-.44-6.79-.77-10.18-1.71-.04-3.15.63-4.72.89m-29.58,4.46l.07.73c3.62-.14,7.48.03,10.96-.52.44-1,1.41-1.84,1.31-3.01-3.85,1.01-9.65-.35-12.33,2.8M7.33,30.39c-.79.61-.26,1.73-.28,2.59,5.83-2.7,11.61-7,17.47-10.45.62-.17-.22-.09-.37-.5-5.73,2.59-11.21,5.57-16.82,8.36m57.06-6.26c.83.77,2,.76,3.09.98.65-2.09.17-4.83-.35-6.91-4.75-.61-2.03,3.29-2.74,5.93M7.23,38.3c6.22-4.23,12.27-8.98,17.64-14.19-5.92,3.88-11.85,7.76-17.89,11.66-.24.77-.13,1.93.24,2.53m80.01-5.38c.32-.03.64-.06,1.06-.1-.19-4.14-.26-8.19-1.55-12.66-1.29-.09-2.38-1.37-3.66-1.46,1.11,4.91-2.23,12.28,4.15,14.23m-50.29-5.4c.03.33.06.64.09.96,3.4.96,7.27.15,10.8.24.52-1.23,1.6-2.29,1.67-3.68-3.55.77-9.84-1.29-12.57,2.49m53.66,6.03c1.37.83,2.65,1.99,4.33,1.72-.5-4.12-.62-8.7-1.5-12.25-1.23-.62-2.48-1.36-3.97-1.33.38,3.92.76,7.94,1.14,11.85m5.28-9.48c2.1,5.25-1.98,14.93,6.76,14.73-.2-4.25-1.17-8.75-1.8-13.07-1.57-.7-3.24-1.39-4.96-1.65m17.62.12c10.79,5.57,21.4,11.49,32.17,16.86,3.22.12,5.89-1,8.57-2.11-13.33-5.23-27.24-11.04-40.79-15.28l.05.53m-79.97,10.07c3.91-.48,7.62.33,11.52-.14.11-1.09,2.81-2.95-.08-2.99-4.33.52-9.06-2.01-11.49,2.6l.05.53m72.09,5.53c1.5,1.14,9.63,6.86,5.32-.19-1.49-4.34-2.87-8.59-4.35-12.94-.97-.12-2.06-.33-3.14-.45.01,4.59,1.71,8.91,2.16,13.57m27.03,4.66c2.88,1,6.63.1,9.16-1.42.44.17.17-.45-.05-.54-9.73-5.57-19.48-11.46-29.04-16.41,6.26,6.23,13.15,12.29,19.93,18.37m-8.13.99c1.99.66,4.05,1,6.28.89-5.99-6.68-13.22-13.03-19.6-19.36,3.91,6.25,8.88,12.39,13.32,18.48m-9.57-1.86c2.13,1.08,4.29,2.37,6.85,2.33-4.13-6.22-8.25-12.44-12.78-18.41,1.6,5.51,3.92,10.73,5.93,16.08m-84.81-4.61c.03.31.06.63.09.95,3.86.16,7.73.43,11.76.14.56-.9,1.11-1.81,1.56-2.71-4.16.08-10.34-3.05-13.41,1.62m-4.44,7.05c.05.53.1,1.06.14,1.48,5.36-.84,7.79,0,12.91-1.25.99-.74,2.16-3.1.95-3.41-4.85.68-11.08-1.92-14,3.17m-5.28,9.48c-.06.54.74-.08.89.45,4.99-1.34,10.34-2.39,15.21-4.04.12-.97,1.48-2.38.46-2.93-5.84,1.42-15.05-1-16.56,6.52m-.96,3.4c-1.89,1.46-3.81,3.68-4.01,6.05,6.91-2.59,13.67-5.59,20.44-8.38-.28-.72.53-1.12.14-1.83-5.54,1.29-11.18,2.58-16.58,4.17m-4.64,9.42c-1.8,2.41-3.16,4.89-2.65,7.95,7.91-5.36,16.74-11.34,23.92-17.69-7.05,3.24-14.22,6.49-21.27,9.74m-1.31,10.7c-1.1,1.81-.6,3.8.32,5.53l.24.29c8.29-7.1,15.55-15.92,23.36-23.51-.03-.32.05-.65-.29-.83-8.2,5.71-15.65,12.62-23.63,18.52m3.1,7.82c-1.1,2.99.55,5.71,2.46,7.77,1.01.54,2.27,2.45,3.19.97,5.79-10.82,11.04-21.78,16.05-32.84-7.49,7.56-14.46,16.13-21.7,24.1"/>
    <path class="cls-1" d="m46.59,56.93c0-.68.31-.99,1.03-.99h18.25c.93,0,.99.47.99,1.1l-.21,3.32c-.05.67-.31,1.03-1.09,1.03h-11.96l-.42,7.7h9.15c.89,0,.99.41.99.99l-.2,3.48c0,.68-.31.99-1.04.99h-9.2l-.47,9.72h11.95c.88,0,.99.31.99.99l-.16,3.48c0,.63-.36,1-1.09,1h-18.25c-.88,0-.93-.47-.93-1l1.67-31.82Z"/>
    <path class="cls-1" d="m69.2,57.04c0-.69.36-1.1,1.1-1.1h7.01c.47,0,.99.41,1.2.89l8.84,19.24c.72,1.67,1.81,3.95,2.28,5.98h.11l1.3-24.95c0-.78.32-1.15,1.15-1.15h4.05c.99,0,1.05.41,1.05,1.1l-1.67,31.7c0,.63-.31,1-1.14,1h-7.07c-.52,0-1.04-.47-1.24-.94l-8.74-19.66c-1.25-2.6-1.93-4.31-2.29-6.02h-.1l-1.25,25.63c0,.63-.36,1-.98,1h-4.32c-.88,0-.94-.47-.94-1l1.67-31.7Z"/>
    <path class="cls-1" d="m112.51,66.29c.72-2.12,1.24-3.64,1.66-5.4h.1c.15,2.39.78,5.61,1.51,10.04l.73,4.46h-7.33l3.33-9.1Zm-14.56,21.27c-.21.47-.52,1.04-.52,1.51,0,.42.41.68.83.68h5.2c.47,0,.78-.31.88-.63l3.13-8.52h9.87l1.77,8.48c.05.36.05.68.78.68h6.19c.63,0,.99-.21.99-.63,0-.36-.21-.98-.32-1.45l-7.43-29.99c-.37-1.46-.73-1.72-2.14-1.72h-5.09c-1.14,0-1.51.36-2.03,1.66l-12.11,29.95Z"/>
    <path class="cls-1" d="m146.57,55.42c-9.89,0-18.51,6.5-18.51,18.14s5.71,16.69,16.01,16.69c4.53,0,8.9-.83,8.9-2.54l.21-4.37c0-.36-.21-.78-.63-.78-.68,0-3.23,1.72-7.55,1.72-5.72,0-9.15-3.43-9.15-10.61s4.05-12.53,10.71-12.53c.63,0,1.18.05,1.7.11v-5.77c-.59-.04-1.16-.05-1.7-.05"/>
  </g>
</svg>